<svg version="1.1" id="Layer_1" xmlns="http://www.w3.org/2000/svg" xmlns:xlink="http://www.w3.org/1999/xlink" x="0px" y="0px"
	 viewBox="0 0 362 114.2" style="enable-background:new 0 0 362 114.2;" xml:space="preserve">
<style type="text/css">
	.st0{fill:#3A3B3B;}
	.st1{font-family:'AmericanTypewriter';}
	.st2{font-size:21.1938px;}
	.st3{opacity:0.25;}
	.st4{fill:#EA118D;}
	.st5{fill:none;stroke:#EA118D;stroke-miterlimit:10;}
	.st6{fill:none;stroke:#EA118D;stroke-miterlimit:10;stroke-dasharray:1.0328,1.0328;}
	.st7{fill:none;stroke:#EA118D;stroke-miterlimit:10;stroke-dasharray:1.0314,1.0314;}
	.st8{fill:none;stroke:#595A5C;stroke-width:0.5;stroke-miterlimit:10;}
	.st9{fill:none;stroke:#3A3B3B;stroke-width:2;stroke-miterlimit:10;}
	.st10{fill:none;stroke:#3A3B3B;stroke-miterlimit:10;}
</style>
<g id="Layer_2">
	<text transform="matrix(1 0 0 1 19.1085 110.2675)" class="st0 st1 st2">Select</text>
	<g class="st3">
		<rect x="34.7" y="26.5" class="st4" width="47.3" height="40.1"/>
		<g>
			<polyline class="st5" points="82,65.3 82,66.3 81.2,66.3 			"/>
			<line class="st6" x1="79.4" y1="66.3" x2="36.5" y2="66.3"/>
			<polyline class="st5" points="35.6,66.3 34.7,66.3 34.7,65.3 			"/>
			<line class="st7" x1="34.7" y1="63.6" x2="34.7" y2="28.2"/>
			<polyline class="st5" points="34.7,27.3 34.7,26.3 35.6,26.3 			"/>
			<line class="st6" x1="37.4" y1="26.3" x2="80.3" y2="26.3"/>
			<polyline class="st5" points="81.2,26.3 82,26.3 82,27.3 			"/>
			<line class="st7" x1="82" y1="29" x2="82" y2="64.5"/>
		</g>
	</g>
	<g id="Layer_2_1_">
		<path class="st8" d="M44.4,7c0,0,3,1.4,6,1.4s4.6,3.2,5.7,3.2s2.5,1.2,4.4,0.4c1.9-0.9,0.7,3.2,2.5,3.2s5.3-1.6,7.1,0.2
			c1.8,1.8,5.5,4.8,1.9,16.2c4.6,3.5,6.4,5.3,7.6,5.8c1.1,0.5,4.4,1.9,2.1,5.1s-5.8,6.9-6.7,7.8c-0.9,0.7-2.5,3.2-3.4,3.7
			c-1.1,0.7-5.1,3.4-6.4,4.2c-1.4,0.9-3.4,1.1-5.3,3.7c-1.9,2.5-6,3.7-7.1,4.9c-1.1,1.2-3.9,3.4-5.3,4.6c-2.1,0.4-10.8,2.1-12,3.2
			c-1.1,1.1-5.3-0.4-6.9,0.5s-2.1,1.1-4.6,1.8c-2.5,0.7-7.9-0.4-7.8-7.1c0-2.8,1.4-3,0.2-5.3c-1.2-2.3-1.6-6-1.8-7.8
			c-0.2-1.9-1.1-5.5-4.9-5.7S5,51.4,4.3,50.1"/>
		<path class="st8" d="M49.5,5.5c0,0,2.5,1.1,5.5,1.1S58.7,8,59.9,8c1.2,0,3.7,0.2,5.7-0.7c1.9-0.9-0.2,4.6,1.6,4.6
			c1.8,0,4.9-2.5,6.7-0.7c1.8,1.8,6.2,7.8,2.6,19.3c4.6,3.5,8.7,7.1,9.9,7.6c1.1,0.5,2.6,3.9,0.4,7.1c-2.3,3.2-5.8,6.9-6.7,7.8
			c-0.9,0.7-2.5,3.2-3.4,3.7c-1.1,0.7-5.1,3.4-6.4,4.2c-1.3,0.8-3.3,0.9-5.2,3.5c-1.9,2.5-6,3.7-7.1,4.9c-1.1,1.2-5.1,3.5-6.4,4.6
			c-2.1,0.4-9.7,1.9-10.8,3c-1.1,1.1-5.3-0.4-6.9,0.5s-2.1,1.1-4.6,1.8s-13.8,4.9-13.6-1.8c0-2.8-2.3-3.4-2.3-6
			c0-3.4,0.9-7.9-0.7-10.2c-1.1-1.6,0.7-7.4-3.4-7.8c-3.7-0.2-1.1,1.2-1.9-0.2"/>
		<path class="st8" d="M92.3,48.3"/>
		<path class="st8" d="M7,69.5c0,1.8,0.5,3.5,1.2,5.1c0.7,1.4,1.6,2.6,1.9,4.1c0.4,1.8-0.4,3.7,0.2,5.5c0.5,1.4,1.8,2.3,3,2.8
			s2.8,0.5,4.2,0.4c2.8-0.4,5.7-1.2,8.1-2.5c1.1-0.5,2.1-1.2,3.2-1.6c3.4-0.9,9.2,0.4,12.7,0.2c3.5-0.2,15.9-6.9,18.2-9.2
			C62,72,74,68.4,74,67s10.6-9.9,12.7-11.1c3.2-1.9,4.6-14.7,4.6-14.7c-0.4-3.2-1.2-6.5-4.1-8.3c-1.6-1.1-3.7-1.2-5.1-2.6
			c-1.1-1.2-1.2-3-1.4-4.6c-0.4-4.8-0.5-9.5-0.9-14.3c0-0.9-0.2-1.9-0.7-2.8s-1.8-1.2-2.5-0.7"/>
		<path class="st8" d="M7.2,87.4c0,0,3.4,5.3,7.1,5.5s13.4-4.8,16.1-4.9c2.5-0.2,10.6,0.2,12.9-1.1c0,0,9-2.6,12.4-5.8
			c3.4-3.4,7.2-5.7,10.1-5.8c2.9-0.1,14.1-8.5,15-10.6s6.2-6.2,8.7-5.8c0,0,4.1-1.8,5.1-3.7"/>
		<path class="st8" d="M42.7,91.9c0,0,10.4-1.6,12.5-4.4s5.5-6.4,9.4-7.2c3.7-0.9,11.1-9.4,15.2-10.4c4.2-1.1,13.1-3,14.5-6.2"/>
		<path class="st8" d="M54.5,93.3c0,0,5.5-3.7,6.7-6c1.1-2.5,3.7-0.2,5.8-2.3c1.9-1.9,1.6-3.2,6.2-5.1s6.5-5.1,10.2-5.1
			S94,73.2,94,71.4"/>
		<path class="st8" d="M67.7,92.7c0,0,1.4-2.8,3.5-2.8s7.2,1.1,10.1-4.1c2.8-5.1,8.8-8.7,11.8-8.5"/>
		<path class="st8" d="M81,92.9c0,0,1.6-5.5,4.2-6.7c2.6-1.1,5.8-4.2,8.1-4.2"/>
		<path class="st8" d="M5.9,35.2c0,0,4.2,3.5,7.2,5.1c3.2,1.6,1.6,3.4,4.1,4.6s8.1,0.5,8.1,3.2s-1.8,2.6-1.1,4.9
			c0.7,2.3,3.7,6.9,6.4,6.9c2.7,0,6.4-2.5,9-1.8s9.5-0.5,9.9-2.3c0.2-1.8,0.2-2.3-0.7-3.7c-1.1-1.6,3.5-4.6,4.8-4.6s6.4-6.4,5.8-8.5
			s-3.9-7.2-5.1-8.1s-5.5-3.5-5.7-5.3s-1.4-1.9-4.2-1.9c-2.8,0-14.8-5.3-16.6-7.6c-1.8-2.3-6.9-4.9-7.6-8.1"/>
		<path class="st8" d="M34.2,6.6c0,0,3.9,4.9,8.1,6.7c4.2,1.8,12.5,7.4,15.2,7.4c2.6,0,6.5,1.1,8.3,2.8c1.8,1.8,2.8,3.5,2.6,6.4
			c-0.2,2.8,0.4,5.3,2.6,6.9c2.3,1.6,3.7,1.9,3.7,4.1s-1.1,2.8-2.1,4.6c-1.1,1.8-4.2,6.9-5.3,7.2c-1.1,0.4-4.6,2.3-6.4,4.4
			c-1.9,2.1-6.5,4.1-9,5.1c-2.5,1.1-8.1,3.9-9.4,4.2c-1.2,0.4-9.4,1.6-11.7,2.6c-2.3,1.1-4.1,2.1-5.8,0c-1.8-2.1-3.2-7.2-3.2-9.5
			c0-2.1-0.2-3.4-1.2-5.7c-1-2.3,0.4-4.2-2.6-5.3c-3-1.1-3.4-1.6-4.4-2.8c-1.1-1.4-4.9-1.9-5.7-2.8"/>
		<path class="st8" d="M13.3,7.6c0,0,2.5,2.5,4.4,5.1s5.7,7.6,7.2,8.1c1.6,0.5,9.9,3,12.5,5.1c2.6,2.2,20.8,8.4,10.4,10.7
			c-4.2,0.9-9,9-11,9.7s-8.1-2.3-11.5-2.5s-5.1,0.5-6.5-1.8c-1.6-2.3-3.7-6-5.5-7.2s-6.7-3.7-7.2-4.4"/>
		<path class="st8" d="M8.7,7.3c0,0,1.1,3.4,2.8,4.2c1.8,0.9,4.2,0.7,5.1,3.5c0.7,2.8,4.2,4.1,4.2,5.5c0.2,1.6,3.9,2.8,5.5,3.2
			c1.6,0.4,4.6,1.6,5.1,4.2s1.8,4.1,3.4,4.1s9.5-0.4,8.3,1.8c-1.2,2.1-11.3,6-14,6.9c-2.6,0.9-7.6,2.6-9,0.2c0,0-6-9.5-7.8-11
			s-5.8-3.2-6.5-3.2"/>
		<path class="st8" d="M6.5,9.2c0,0,2.3,3.9,4.2,4.9c1.9,1,3.5,2.3,4.1,4.4c0.5,2.1,1.9,1.6,2.5,2.3c0.5,0.7,1.1,3,2.8,3.9
			c1.6,0.9,4.2,1.2,5.7,1.8c1.6,0.5,2.5,1.1,1.6,3c-1.1,1.8-5.3,6.5-5.7,6.9c-0.4,0.4-3.2,0.4-4.1-2.5s-2.5-6.4-5.1-7.1
			s-5.7-3-6.7-2.8"/>
		<path class="st8" d="M7.3,13.5c0,0,3.5,3.7,4.6,4.8s0.5,2.1,1.1,2.5c0.5,0.5,3.5,1.6,2.1,1.8c-1.6,0.2-1.9,1.4-3.2,0.9
			c-1.2-0.5-4.1-4.4-5.7-3.4"/>
	</g>
	<text transform="matrix(1 0 0 1 286.4877 110.2675)" class="st0 st1 st2">Print</text>
	<text transform="matrix(1 0 0 1 134.6085 99.2675)" class="st0 st1 st2">Download</text>
	<g>
		<g>
			<line class="st9" x1="102.5" y1="52.3" x2="128.4" y2="52.3"/>
			<g>
				<polygon class="st0" points="127,57.3 135.6,52.3 127,47.3 				"/>
			</g>
		</g>
	</g>
	<g>
		<g>
			<line class="st9" x1="230.5" y1="52.3" x2="256.4" y2="52.3"/>
			<g>
				<polygon class="st0" points="255,57.3 263.6,52.3 255,47.3 				"/>
			</g>
		</g>
	</g>
</g>
<g id="Layer_3">
	<path class="st0" d="M197,51.5c0-0.4-0.1-0.7-0.4-1s-0.6-0.4-1-0.4h-9.4V35.3c0-0.4-0.1-0.7-0.4-0.9c-0.3-0.2-0.6-0.4-0.9-0.4h-8.1
		c-0.4,0-0.7,0.1-0.9,0.4c-0.2,0.3-0.4,0.6-0.4,0.9v14.8H166c-0.4,0-0.7,0.1-0.9,0.4c-0.2,0.3-0.4,0.6-0.4,0.9c0,0.4,0.1,0.7,0.4,1
		l14.8,14.9c0.3,0.3,0.6,0.4,1,0.4s0.7-0.1,1-0.4l14.8-14.8C196.9,52.2,197,51.7,197,51.5z M224,60.8c0,4.5-1.6,8.3-4.7,11.4
		c-3.2,3.2-7,4.7-11.4,4.7H162c-5.2,0-9.6-1.8-13.3-5.5c-3.7-3.7-5.5-8.1-5.5-13.3c0-3.7,1-7,2.9-10.1c2-3.1,4.6-5.4,7.9-7
		c-0.1-0.8-0.1-1.4-0.1-1.8c0-6,2.1-11,6.3-15.3c4.2-4.2,9.3-6.3,15.3-6.3c4.4,0,8.4,1.2,12,3.7s6.3,5.7,7.9,9.7
		c2-1.7,4.3-2.6,7-2.6c3,0,5.5,1.1,7.6,3.2s3.2,4.6,3.2,7.6c0,2.1-0.6,4.1-1.7,5.8c3.7,0.9,6.7,2.8,9,5.7
		C222.8,53.7,224,57.2,224,60.8z"/>
</g>
<g>
	<g>
		<path class="st0" d="M350.1,8h-66.9c-4.7,0-8.5,3.8-8.5,8.5v66.9c0,4.7,3.8,8.5,8.5,8.5h66.9c4.7,0,8.5-3.8,8.5-8.5V16.5
			C358.5,11.8,354.7,8,350.1,8z M293.7,88.5c-3.1,0-5.7-2.6-5.7-5.7c0-3.1,2.6-5.7,5.7-5.7s5.7,2.6,5.7,5.7
			C299.4,85.9,296.8,88.5,293.7,88.5z M323.9,80.1h-8.2v-3.2h8.2V80.1z M332.5,80.1h-5c-0.9,0-1.6-0.7-1.6-1.6
			c0-0.9,0.7-1.6,1.6-1.6h5c0.9,0,1.6,0.7,1.6,1.6C334.1,79.4,333.3,80.1,332.5,80.1z M348.3,73.9h-63.4V17.6h63.4V73.9z"/>
	</g>
</g>
<rect x="300.6" y="43.4" class="st10" width="29.3" height="26.5"/>
<rect x="286.5" y="25.3" class="st0" width="60.7" height="2"/>
<polygon class="st0" points="300.4,28.8 300.4,35.8 304.4,39.8 307.9,35.8 307.9,28.8 "/>
</svg>
