<svg version="1.1" id="Layer_1" xmlns="http://www.w3.org/2000/svg" xmlns:xlink="http://www.w3.org/1999/xlink" x="0px" y="0px"
	 viewBox="-1470 1393 57.5 216" style="enable-background:new -1470 1393 57.5 216;" xml:space="preserve">
<style type="text/css">
	.st0{display:none;}
	.st1{display:inline;fill:#71BF4D;stroke:#000000;stroke-miterlimit:10;}
	.st2{fill:none;stroke:#58595B;stroke-width:0.5;stroke-miterlimit:10;}
	.st3{font-family:'AmericanTypewriter';}
	.st4{font-size:10.9752px;}
	.st5{opacity:0.25;}
	.st6{fill:#EC008C;}
	.st7{fill:none;stroke:#EC008C;stroke-miterlimit:10;}
	.st8{fill:none;stroke:#EC008C;stroke-miterlimit:10;stroke-dasharray:1.0328,1.0328;}
	.st9{fill:none;stroke:#EC008C;stroke-miterlimit:10;stroke-dasharray:1.0314,1.0314;}
	.st10{fill:none;stroke:#3A3A3A;stroke-width:1.3;stroke-miterlimit:10;}
	.st11{fill:#3A3A3A;}
	.st12{fill:none;stroke:#3A3A3A;stroke-miterlimit:10;}
</style>
<g id="Layer_4" class="st0">
	<rect x="-2671.2" y="2777" class="st1" width="177.2" height="134"/>
</g>
<g id="Web_arrows">
</g>
<g id="Web_file">
</g>
<g id="Web_printer">
</g>
<g id="Web_print">
</g>
<g id="Web_map">
</g>
<g id="Mobile_map">
	<path class="st2" d="M-1443.8,1395.9c0,0,1.5,0.7,3.1,0.7c1.5,0,2.3,1.7,2.9,1.7s1.3,0.6,2.3,0.2c1-0.5,0.3,1.6,1.3,1.6
		c0.9,0,2.8-0.8,3.6,0.1c0.9,0.9,2.8,2.4,1,8.4c2.3,1.9,3.3,2.8,4,3c0.6,0.2,2.3,1,1,2.7c-1.3,1.6-3,3.6-3.5,4.1
		c-0.5,0.3-1.3,1.6-1.7,1.9c-0.6,0.3-2.7,1.7-3.3,2.2c-0.7,0.5-1.7,0.6-2.8,1.9c-1,1.3-3.1,1.9-3.6,2.6c-0.6,0.6-2,1.7-2.8,2.3
		c-1,0.2-5.6,1-6.2,1.6s-2.8-0.2-3.6,0.2c-0.8,0.5-1,0.6-2.3,0.9s-4.1-0.2-4.1-3.6c0-1.5,0.7-1.5,0.1-2.8c-0.6-1.2-0.8-3.1-0.9-4.1
		s-0.6-2.8-2.6-2.9s-2.4,0.1-2.8-0.6"/>
	<path class="st2" d="M-1441.2,1395.1c0,0,1.3,0.6,2.8,0.6s1.9,0.7,2.6,0.7c0.6,0,1.9,0.1,2.9-0.3s-0.1,2.3,0.8,2.3s2.6-1.3,3.5-0.3
		s3.1,4.1,1.4,10c2.3,1.9,4.4,3.6,5.1,4c0.6,0.2,1.4,2,0.2,3.6c-1.2,1.6-3,3.6-3.5,4.1c-0.5,0.3-1.3,1.6-1.7,1.9
		c-0.6,0.3-2.7,1.7-3.3,2.2c-0.6,0.5-1.7,0.6-2.8,1.9c-1,1.4-3.1,1.9-3.6,2.6c-0.6,0.6-2.7,1.9-3.3,2.3c-1,0.2-5,1-5.6,1.5
		c-0.6,0.6-2.8-0.2-3.6,0.2c-0.8,0.5-1,0.6-2.3,0.9s-7.1,2.6-7-0.9c0-1.5-1.2-1.7-1.2-3.1c0.1-1.7,0.6-4.1-0.2-5.4
		c-0.6-0.8,0.3-3.8-1.7-4.1c-2-0.1-0.6,0.6-1-0.1"/>
	<path class="st2" d="M-1419.1,1417.5"/>
	<path class="st2" d="M-1463.3,1428.3c0,0.9,0.2,1.9,0.6,2.7c0.3,0.7,0.8,1.4,1,2.1c0.2,0.9-0.2,1.9,0.1,2.8
		c0.2,0.7,0.9,1.2,1.5,1.5c0.7,0.2,1.5,0.2,2.2,0.2c1.5-0.2,2.9-0.6,4.2-1.3c0.6-0.2,1-0.6,1.6-0.8c1.7-0.5,4.8,0.2,6.6,0.1
		c1.9-0.1,8.3-3.6,9.4-4.8c1.1-1.2,7.5-3,7.5-3.7s5.5-5.1,6.6-5.7c1.6-1,2.3-7.6,2.3-7.6c-0.2-1.6-0.6-3.4-2.1-4.3
		c-0.8-0.6-1.9-0.6-2.7-1.4c-0.6-0.6-0.6-1.5-0.7-2.3c0-2.4-0.2-4.9-0.3-7.3c0-0.5-0.1-1-0.3-1.5c-0.2-0.3-0.9-0.6-1.3-0.3"/>
	<path class="st2" d="M-1463.2,1437.7c0,0,1.7,2.8,3.6,2.8c1.9,0.1,7-2.4,8.3-2.6c1.3-0.1,5.5,0.1,6.6-0.6c0,0,4.7-1.4,6.4-3
		c1.7-1.7,3.7-2.9,5.2-3s7.3-4.4,7.8-5.5c0.5-1,3.1-3.1,4.4-3c0,0,2.1-0.9,2.7-1.9"/>
	<path class="st2" d="M-1444.7,1440c0,0,5.4-0.8,6.5-2.3c1-1.5,2.8-3.3,4.9-3.7c1.9-0.5,5.7-4.9,7.9-5.4c2.2-0.6,6.8-1.5,7.5-3.1"/>
	<path class="st2" d="M-1438.7,1440.7c0,0,2.8-1.9,3.5-3.1c0.6-1.3,1.9-0.1,3-1.2s0.8-1.6,3.1-2.7c2.3-1,3.4-2.7,5.4-2.7
		c1.9,0,5.5-0.8,5.5-1.7"/>
	<path class="st2" d="M-1431.8,1440.5c0,0,0.7-1.5,1.9-1.5s3.7,0.6,5.2-2.1s4.5-4.4,6.2-4.4"/>
	<path class="st2" d="M-1424.9,1440.7c0,0,0.8-2.8,2.2-3.5c1.4-0.6,3-2.2,4.2-2.2"/>
	<path class="st2" d="M-1463.8,1410.7c0,0,2.2,1.9,3.7,2.7c1.6,0.8,0.8,1.7,2.1,2.3c1.3,0.6,4.2,0.2,4.2,1.6s-0.9,1.4-0.6,2.6
		s1.9,3.6,3.3,3.6s3.3-1.3,4.7-0.9c1.4,0.3,4.9-0.2,5.1-1.2c0.1-0.9,0.1-1.2-0.3-1.9c-0.6-0.8,1.9-2.3,2.4-2.3s3.3-3.3,3-4.4
		c-0.2-1-2-3.7-2.7-4.2c-0.6-0.5-2.8-1.9-2.9-2.8s-0.7-1-2.2-1s-7.7-2.8-8.6-4s-3.5-2.8-3.8-4.4"/>
	<path class="st2" d="M-1449.2,1395.8c0,0,2,2.6,4.2,3.5s6.5,3.8,7.9,3.8s3.4,0.6,4.3,1.5c0.9,1,1.5,1.9,1.4,3.3
		c-0.1,1.5,0.2,2.8,1.4,3.6c1.2,0.8,1.9,1,1.9,2.1c0,1-0.6,1.5-1,2.3c-0.6,0.9-2.2,3.6-2.8,3.7c-0.6,0.2-2.3,1.2-3.3,2.3
		c-0.9,1-3.4,2.1-4.7,2.7c-1.3,0.6-4.2,2-4.9,2.2c-0.6,0.1-4.9,0.8-6.1,1.4s-2.1,1-3,0s-1.6-3.7-1.6-4.9c0-1-0.1-1.7-0.6-2.9
		c-0.6-1.2,0.2-2.1-1.3-2.7s-1.7-0.8-2.3-1.5c-0.6-0.7-2.6-1-2.9-1.5"/>
	<path class="st2" d="M-1460.1,1396.4c0,0,1.3,1.3,2.3,2.7c1,1.4,2.9,4,3.7,4.2c0.8,0.2,5.1,1.5,6.5,2.7c1.4,1,10.7,4.3,5.4,5.5
		c-2.2,0.5-4.7,4.7-5.7,5s-4.2-1.2-5.9-1.3c-1.7-0.1-2.7,0.2-3.4-0.9c-0.7-1.2-1.9-3.1-2.8-3.7s-3.5-1.9-3.7-2.3"/>
	<path class="st2" d="M-1462.2,1396.3c0,0,0.6,1.7,1.5,2.2s2.2,0.3,2.7,1.9c0.5,1.5,2.2,2.1,2.2,2.8c0.1,0.8,2,1.5,2.8,1.6
		c0.8,0.2,2.3,0.8,2.7,2.2c0.2,1.4,0.9,2.1,1.7,2.1s4.9-0.2,4.3,0.9c-0.6,1.2-5.8,3.1-7.2,3.6s-4.1,1.4-4.7,0.1c0,0-3.1-4.9-4.1-5.7
		c-1-0.8-3-1.7-3.5-1.7"/>
	<path class="st2" d="M-1463.5,1397.1c0,0,1.2,2,2.2,2.6c0.9,0.6,1.9,1.2,2.1,2.3c0.2,1.1,1,0.8,1.3,1.2s0.6,1.5,1.5,2
		s2.2,0.6,2.9,0.9c0.8,0.2,1.3,0.6,0.8,1.5c-0.6,0.9-2.8,3.4-2.9,3.6c-0.2,0.2-1.6,0.2-2.1-1.3s-1.3-3.1-2.7-3.6
		c-1.4-0.3-2.9-1.5-3.5-1.5"/>
	<path class="st2" d="M-1463.1,1399.4c0,0,1.9,1.9,2.3,2.4c0.6,0.6,0.2,1,0.6,1.3c0.2,0.2,1.9,0.8,1,0.9s-1,0.7-1.6,0.5
		s-2.1-2.3-2.9-1.7"/>
	<text transform="matrix(1 0 0 1 -1457.1805 1450.2769)" class="st3 st4">Select</text>
	<g class="st5">
		<rect x="-1449" y="1406.8" class="st6" width="24.6" height="20.7"/>
		<g>
			<polyline class="st7" points="-1424.7,1427 -1424.7,1427.5 -1424.9,1427.5 			"/>
			<line class="st8" x1="-1425.9" y1="1427.5" x2="-1448.2" y2="1427.5"/>
			<polyline class="st7" points="-1448.7,1427.5 -1449.1,1427.5 -1449.1,1427 			"/>
			<line class="st9" x1="-1449.1" y1="1426.1" x2="-1449.1" y2="1407.7"/>
			<polyline class="st7" points="-1449.1,1407.2 -1449.1,1406.8 -1448.7,1406.8 			"/>
			<line class="st8" x1="-1447.7" y1="1406.8" x2="-1425.5" y2="1406.8"/>
			<polyline class="st7" points="-1424.9,1406.8 -1424.7,1406.8 -1424.7,1407.2 			"/>
			<line class="st9" x1="-1424.7" y1="1408.2" x2="-1424.7" y2="1426.6"/>
		</g>
	</g>
</g>
<g>
	<g>
		<line class="st10" x1="-1440.3" y1="1453.6" x2="-1440.3" y2="1471.4"/>
		<g>
			<polygon class="st11" points="-1443.7,1470.4 -1440.3,1476.3 -1436.8,1470.4 			"/>
		</g>
	</g>
</g>
<path class="st11" d="M-1433.8,1497.7c0-0.2,0-0.3-0.2-0.6c-0.2-0.3-0.3-0.2-0.6-0.2h-4.9v-7.8c0-0.2,0-0.3-0.2-0.5
	s-0.3-0.2-0.5-0.2h-4.3c-0.2,0-0.3,0-0.5,0.2c-0.1,0.1-0.2,0.3-0.2,0.5v7.8h-5c-0.2,0-0.3,0-0.5,0.2c-0.1,0.1-0.2,0.3-0.2,0.5
	s0,0.3,0.2,0.6l7.8,7.9c0.1,0.1,0.3,0.2,0.6,0.2c0.3,0,0.3,0,0.6-0.2l7.8-7.8C-1433.8,1498.2-1433.8,1497.8-1433.8,1497.7z
	 M-1419.6,1502.7c0,2.3-0.8,4.4-2.4,6.1c-1.7,1.7-3.7,2.4-6.1,2.4h-24.3c-2.8,0-5.1-0.9-7.1-2.9s-2.9-4.3-2.9-7.1
	c0-2,0.6-3.7,1.5-5.4c1-1.6,2.4-2.9,4.2-3.7c0-0.5,0-0.7,0-0.9c0-3.1,1.2-5.8,3.4-8.2c2.2-2.2,4.9-3.4,8.2-3.4c2.3,0,4.4,0.6,6.4,2
	c1.9,1.3,3.4,3,4.2,5.1c1-0.9,2.3-1.4,3.7-1.4c1.6,0,2.9,0.6,4.1,1.7s1.7,2.4,1.7,4.1c0,1.2-0.3,2.2-0.9,3c2,0.5,3.6,1.5,4.8,3
	C-1420.2,1498.9-1419.6,1500.7-1419.6,1502.7z"/>
<text transform="matrix(1 0 0 1 -1453.8817 1606.8911)" class="st3 st4">Print</text>
<text transform="matrix(1 0 0 1 -1465.911 1520.4478)" class="st3 st4">Download</text>
<g>
	<g>
		<line class="st10" x1="-1440.7" y1="1523.4" x2="-1440.7" y2="1541.3"/>
		<g>
			<polygon class="st11" points="-1444.1,1540.2 -1440.7,1546.2 -1437.2,1540.2 			"/>
		</g>
	</g>
</g>
<g>
	<g>
		<path class="st11" d="M-1420.9,1549.3h-38.6c-2.3,0-4.3,1.9-4.3,4.3v38.6c0,2.3,1.9,4.3,4.3,4.3h38.6c2.3,0,4.3-1.9,4.3-4.3v-38.6
			C-1416.6,1551.3-1418.5,1549.3-1420.9,1549.3z M-1453,1594.6c-1.8,0-3.2-1.4-3.2-3.2c0-1.8,1.4-3.2,3.2-3.2s3.2,1.4,3.2,3.2
			C-1449.8,1593.1-1451.3,1594.6-1453,1594.6z M-1436.1,1589.8h-4.6v-1.8h4.6V1589.8z M-1431.2,1589.8h-2.8c-0.5,0-0.9-0.4-0.9-0.9
			s0.4-0.9,0.9-0.9h2.8c0.5,0,0.9,0.4,0.9,0.9S-1430.7,1589.8-1431.2,1589.8z M-1422.4,1586.4h-35.6v-31.6h35.6V1586.4z"/>
	</g>
</g>
<rect x="-1449.1" y="1569.2" class="st12" width="16.5" height="14.9"/>
<rect x="-1457.1" y="1559.1" class="st11" width="34.1" height="1.1"/>
<polygon class="st11" points="-1449.3,1561 -1449.3,1565 -1447,1567.2 -1445,1565 -1445,1561 "/>
</svg>
